# xmcd
#
# Track frame offsets: 
#        182
#        19867
#        38955
#        56057
#        73242
#        88522
#        105785
#        122607
#        139852
#        157200
#        171847
#        191752
#        208832
#        228360
#        246372
#        266495
#        281047
#        294035
#        311827
#
# Disc length: 4412 seconds
#
# Revision: 0
# Processed by: cddbd v1.5.2PL0 Copyright (c) Steve Scherf et al.
# Submitted via: ExactAudioCopy v0.95b4
#
DISCID=1d113a13
DTITLE=Various Artist - The Greatest Hits 94 volume 2
DYEAR=1994
DGENRE=Karuwacho
TTITLE0=Joshua Kadison - Jessie
TTITLE1=Laura Pausini - Strani Amori
TTITLE2=Deep Forest - Sweet Lullaby
TTITLE3=Ace Of Base - Don't Turn Around
TTITLE4=CJ Lewis - Sweets For My Sweet
TTITLE5=Magic Affair - Give Me All Your Love
TTITLE6=Maxx - No More (I Can't Stand It)
TTITLE7=Reel 2 Real - I Like To Move It
TTITLE8=Motiv 8 - Rockin' For Myself
TTITLE9=Lucilectric - Mädchen
TTITLE10=Stiltskin - Inside
TTITLE11=Roxette - Sleeping In My Car
TTITLE12=Dulfer - Streetbeats
TTITLE13=Normaal - Doe Effen Normaal
TTITLE14=Timeless - Where Is The Love
TTITLE15=Dr. Alban - Look Who's Talking
TTITLE16=T.O.C. - Doo-Wop Sh'Bob
TTITLE17=Magic Affair - Omen III
TTITLE18=Johan and De Groothandel - As Dick Me Hullep Nodig Heb
EXTD=
EXTT0=
EXTT1=
EXTT2=
EXTT3=
EXTT4=
EXTT5=
EXTT6=
EXTT7=
EXTT8=
EXTT9=
EXTT10=
EXTT11=
EXTT12=
EXTT13=
EXTT14=
EXTT15=
EXTT16=
EXTT17=
EXTT18=
PLAYORDER=
